# xmcd
#
# Track frame offsets:
#	150
#	13875
#	27425
#	41290
#	56400
#	66975
#	80645
#	94762
#	108102
#	125815
#	136542
#	153242
#	165580
#	177590
#	187395
#	200842
#
# Disc length: 3003 seconds
# Revision: 0
# Processed by: cddbd v1.5.2PL0 Copyright (c) Steve Scherf et al.
# Submitted via: dBpowerAMP V12.0
#
DISCID=e00bb910
DTITLE=The Seldom Scene - The Best of the Seldom Scene
DYEAR=1996
DGENRE=Country
TTITLE0=City of New Orleans
TTITLE1=Sing Me Back Home
TTITLE2=Muddy Water
TTITLE3=500 Miles
TTITLE4=Hello Mary Lou
TTITLE5=Small Exception of Me
TTITLE6=Sweet Baby James
TTITLE7=Heaven
TTITLE8=With Body and Soul
TTITLE9=Paradise
TTITLE10=Darling Corey
TTITLE11=Cannonball
TTITLE12=Sweetest Gift
TTITLE13=Another Lonesome Day
TTITLE14=Little Georgia Rose
TTITLE15=Rider
EXTD=
EXTT0=
EXTT1=
EXTT2=
EXTT3=
EXTT4=
EXTT5=
EXTT6=
EXTT7=
EXTT8=
EXTT9=
EXTT10=
EXTT11=
EXTT12=
EXTT13=
EXTT14=
EXTT15=
PLAYORDER=
